#!OML:ASF I:\Actors\actors\Patient Classification 1\Patient 1\Session 1\Subject1.ASF
:FULLY-SPECIFIED
:DEGREES
281
root 0.260269 17.549 8.8618 17.5262 -46.8255 -11.4969
lowerback -4.39237 -4.26798 3.40643
upperback -8.69089 -5.77524 3.28897
thorax -6.61332 -3.06169 1.64081
lowerneck -5.49325 -10.3799 -12.6701
upperneck 22.8301 -16.1825 11.4179
head 10.132 -7.83352 4.16143
rclavicle -2.5196e-014 2.1419e-014
rhumerus -11.4988 32.1046 -101.378
rradius 137.161
rwrist 31.316
rhand 39.081 -53.3832
rfingers 7.12502
rthumb 61.6291 -65.3313
lclavicle -2.5196e-014 2.1419e-014
lhumerus -23.6053 -28.7148 106.484
lradius 136.039
lwrist -22.4823
lhand 52.4621 12.306
lfingers 7.12502
lthumb 71.4734 2.65685
rfemur -18.3489 25.1489 18.773
rtibia 7.89229
rfoot -4.37349 13.8888
rtoes 3.36137
lfemur 10.1412 -26.2176 -22.2328
ltibia -3.73915
lfoot -72.7588 58.7018
ltoes 41.8063
282
root 0.2541 17.5586 8.84697 16.5567 -43.204 -10.6989
lowerback -4.1588 -3.84404 3.59455
upperback -8.80179 -5.18139 3.14763
thorax -6.89701 -2.77705 1.40788
lowerneck -6.09703 -9.83647 -11.5469
upperneck 23.1374 -15.2879 10.7301
head 10.0721 -7.3438 3.85392
rclavicle 9.07825e-014 -8.94531e-015
rhumerus -11.4859 32.2634 -101.149
rradius 136.884
rwrist 30.7241
rhand 38.2671 -53.3739
rfingers 7.12502
rthumb 60.9438 -66.1237
lclavicle 9.07825e-014 -8.94531e-015
lhumerus -23.3449 -28.2349 106.068
lradius 136.129
lwrist -22.0359
lhand 52.9138 11.781
lfingers 7.12502
lthumb 71.7312 1.01644
rfemur -17.3464 24.9042 18.7373
rtibia 7.61118
rfoot -5.72597 10.6861
rtoes -1.14899
lfemur 10.0387 -27.9022 -21.7973
ltibia -3.72846
lfoot -69.285 59.1657
ltoes 40.3434
283
root 0.247616 17.5693 8.83235 15.5431 -39.2348 -9.76651
lowerback -3.98845 -3.34665 3.74633
upperback -8.93862 -4.49473 2.88854
thorax -7.17227 -2.44943 1.05956
lowerneck -6.69328 -9.21239 -10.4798
upperneck 23.5141 -14.3334 10.1811
head 10.0636 -6.81825 3.60916
rclavicle 3.3694e-014 3.24019e-014
rhumerus -11.5056 32.1825 -100.948
rradius 136.535
rwrist 30.5056
rhand 37.8969 -53.0137
rfingers 7.12502
rthumb 60.6301 -66.1151
lclavicle 3.3694e-014 3.24019e-014
lhumerus -23.3079 -27.8826 105.825
lradius 136.284
lwrist -21.6094
lhand 53.22 11.3013
lfingers 7.12502
lthumb 71.9018 -0.237514
rfemur -16.2743 24.7765 18.5366
rtibia 7.31452
rfoot -6.92801 6.93121
rtoes -4.82744
lfemur 9.84454 -29.8653 -21.5081
ltibia -3.69272
lfoot -65.4527 59.6858
ltoes 38.5885
284
root 0.237151 17.5805 8.82008 14.5357 -35.0051 -8.92246
lowerback -3.90996 -2.80312 3.94228
upperback -8.98917 -3.75376 2.55917
thorax -7.29854 -2.09936 0.594055
lowerneck -7.1161 -8.50841 -9.61901
upperneck 23.7791 -13.367 10.0802
head 10.0477 -6.27049 3.56032
rclavicle 9.06707e-014 -4.83047e-014
rhumerus -11.4206 32.0035 -100.767
rradius 136.222
rwrist 31.0253
rhand 37.773 -52.6291
rfingers 7.12502
rthumb 60.5249 -65.8464
lclavicle 9.06707e-014 -4.83047e-014
lhumerus -23.3045 -27.8015 105.605
lradius 136.407
lwrist -21.1599
lhand 52.9197 11.5419
lfingers 7.12502
lthumb 71.7345 0.762587
rfemur -15.0051 24.9194 18.4197
rtibia 7.05406
rfoot -7.88659 2.6916
rtoes -6.86825
lfemur 9.75072 -32.0084 -21.2792
ltibia -3.70341
lfoot -61.2224 60.2345
ltoes 36.4725
285
root 0.221254 17.5905 8.80679 13.5621 -30.5338 -8.23573
lowerback -3.82798 -2.29511 4.16201
upperback -8.96957 -3.05901 2.26493
thorax -7.33825 -1.77122 0.14653
lowerneck -7.52553 -7.81619 -8.68772
upperneck 23.9488 -12.3723 9.78149
head 9.9843 -5.72103 3.42999
rclavicle -1.3664e-013 -3.65764e-014
rhumerus -11.2404 31.9631 -100.533
rradius 136.044
rwrist 31.7377
rhand 37.9291 -52.3011
rfingers 7.12502
rthumb 60.6574 -65.3722
lclavicle -1.3664e-013 -3.65764e-014
lhumerus -23.2464 -27.786 105.368
lradius 136.459
lwrist -21.064
lhand 53.092 11.7719
lfingers 7.12502
lthumb 71.8309 0.558587
rfemur -13.6406 25.149 18.5013
rtibia 6.99889
rfoot -8.76753 -1.63457
rtoes -7.32015
lfemur 9.53796 -33.7423 -20.8011
ltibia -3.6925
lfoot -55.2973 60.6975
ltoes 33.4456
286
root 0.201874 17.5973 8.78784 12.7004 -25.8323 -7.60569
lowerback -3.64579 -1.86377 4.27033
upperback -8.98441 -2.4569 2.06324
thorax -7.45499 -1.47959 -0.136063
lowerneck -8.15887 -7.20347 -7.54052
upperneck 24.2774 -11.4431 9.0884
head 10.0039 -5.21016 3.10456
rclavicle -4.94228e-014 -2.08724e-014
rhumerus -10.9858 32.0261 -100.207
rradius 135.78
rwrist 31.8555
rhand 38.2562 -52.0865
rfingers 7.12502
rthumb 60.9345 -64.8468
lclavicle -4.94228e-014 -2.08724e-014
lhumerus -23.0871 -27.7021 105.112
lradius 136.554
lwrist -20.9337
lhand 53.5922 11.5889
lfingers 7.12502
lthumb 72.1044 -0.911045
rfemur -12.4151 25.1551 18.6369
rtibia 7.18035
rfoot -9.7431 -5.72165
rtoes -6.41285
lfemur 8.82732 -34.7651 -19.9077
ltibia -3.58155
lfoot -47.4628 60.5159
ltoes 29.5103
287
root 0.183423 17.6031 8.76962 11.9148 -21.0716 -7.10431
lowerback -3.30173 -1.41307 4.44301
upperback -9.0559 -1.81623 1.87313
thorax -7.7226 -1.1763 -0.439849
lowerneck -8.81823 -6.55852 -6.89227
upperneck 24.7857 -10.5055 8.74095
head 10.1629 -4.70332 2.98365
rclavicle -2.07978e-014 -3.67752e-014
rhumerus -10.8263 31.9206 -99.8797
rradius 135.388
rwrist 31.3546
rhand 38.3795 -51.6081
rfingers 7.12502
rthumb 61.0388 -64.2496
lclavicle -2.07978e-014 -3.67752e-014
lhumerus -23.0396 -27.6933 104.949
lradius 136.73
lwrist -20.7857
lhand 53.6717 11.4766
lfingers 7.12502
lthumb 72.147 -1.23148
rfemur -11.1896 24.7079 18.9193
rtibia 7.43056
rfoot -10.719 -9.31046
rtoes -5.04966
lfemur 7.88917 -35.4759 -18.8538
ltibia -3.37208
lfoot -39.7369 59.506
ltoes 25.1792
